<svg xmlns="http://www.w3.org/2000/svg" fill="none" viewBox="0 0 288 200">
  <g clip-path="url(#a)">
    <path fill="#FFB6B6" d="M36.3 178h4.4L39 191.5h-3l.3-13.6Z"/>
    <path fill="#2F2E41" d="M46.3 197.7a1 1 0 0 0-.4-.8l-3.4-1.6-2.2-5.3v-5.3l-4.7-.5-.7 3.4s1.4-.3-.3 1.2-.9 4.4-.9 4.4l-.4 5.5h3.1l.2-3.4c2.4 1 3 3.4 3 3.4h6c.4 0 .7-.5.7-1Z"/>
    <path fill="#FFB6B6" d="m42.8 178 4.4.2-1.7 13.5h-3l.3-13.6Z"/>
    <path fill="#2F2E41" d="M52.8 197.9a1 1 0 0 0-.4-.9l-3.4-1.6-2.2-5.2v-5.3l-4.7-.6-.7 3.4s1.4-.2-.3 1.3-.9 4.4-.9 4.4l-.4 5.4H43l.2-3.4c2.4 1 3 3.4 3 3.4h6c.4 0 .7-.4.7-1ZM37.7 98.8l-5 12c-1.7 4-2.3 8.4-1.6 12.7l2.5 59h9.6l4.2-52.5.9 20.7-9.7 29.6h9.5l12.2-29.6 1-22.8-4.4-17.6-19.2-11.5Z"/>
    <path fill="#3F3D56" d="M174 47.4v-30C174 7.8 166.2 0 156.6 0H93.1c-9.6 0-17.4 7.8-17.4 17.4V182c0 9.6 7.8 17.4 17.4 17.4h63.5c9.6 0 17.4-7.8 17.4-17.4V68.7c.6 0 1.1-.4 1.1-1V48.5c0-.6-.5-1.1-1-1.1Z"/>
    <path fill="#fff" d="M170.7 16v166.9c-10.1-.6-5 12.8-13.1 13.2h-65c-7.2 0-13-6-13-13.2v-167c0-7.3 5.8-13.1 13-13.1h4.9C96.2 6 106.7 7 107.5 7h33.2c3.5 0 11.8-3.5 11.5-4.2h5.4c7.2 0 13.1 5.9 13.1 13.1Z"/>
    <path fill="#3F3D56" d="M75.2 51c-.5 0-.9.4-.9.9v6.7a.8.8 0 0 0 1.7 0V52c0-.5-.4-.8-.8-.8ZM75.2 71.2c-.5 0-.9.4-.9.8v13a.8.8 0 0 0 1.7 0V72c0-.4-.4-.8-.8-.8ZM75.2 89.7c-.5 0-.9.3-.9.8v13a.8.8 0 0 0 1.7 0v-13c0-.5-.4-.8-.8-.8Z"/>
    <path fill="#FFB6B6" d="m273 188.8-3.9 2.7-12.4-14 5.9-4 10.5 15.3Z"/>
    <path fill="#2F2E41" d="M259.4 198c0 .3.4 1 .6 1.3.5.7 1.5 1 2.2.4l12.4-8.4c.5-.4.6-1 .3-1.6l-.4-.5s-.4-2-3-3c0 0-.5 2.6-4.5 1.8l-1.5-.8-2.5 7.1-2.5 2.2c-.6.5-1.2.8-1.1 1.5Z"/>
    <path fill="#FFB6B6" d="M243.7 196H239l-2.3-18.6 6 .7 1.1 18Z"/>
    <path fill="#2F2E41" d="M227.2 196c-.2.2-.2 1-.2 1.3 0 .9.7 1.6 1.6 1.6h15c.6 0 1-.5 1-1.1v-.6s.8-1.9-.7-4.2c0 0-2 1.8-4.7-1l-.9-1.5-6 4.4-3.4.4c-.7 0-1.3 0-1.7.6ZM226.8 125.3l.4 4.4-.8 3.5 1.4 3.6 1.6 19.5 8.4 33.5 6.4 1.4-3.1-33.5 2.4-27.7-16.7-4.7Z"/>
    <path fill="#2F2E41" d="m254 106.2-24.5.4-2.7 18.7 16.7 7.8-.6 26.7 18.6 27 10-5.7-16.7-22.9 4.7-38-5.5-14Z"/>
    <path fill="#E6E6E6" d="m235.9 62.2-4.3 5.6 2 42.5 16-.3 2.7-37.1-3.4-9.6-1.2-2.1-1.5-2.8-9.4.7-1 3.1Z"/>
    <path fill="#2F2E41" d="m229.5 88.5.9 8.7-1 10-1.4 2.7-3 10.8s-3.1 4.7 3.7 5c6.8.4 29-1.8 29-1.8s2.9 0 1.6-5.9c-2-3.3-.7-8-.7-8l-2.5-9.6.7-8.8 4.7-23.2c-4.2-3.3-9-5.7-14.1-7.3L242.9 73 236.2 62l-2.6 2c-3.4.8-6.5 2.2-8.9 4.3l4.8 20.1Z"/>
    <path fill="#F2F2F2" d="M148.7 67.9h-48a6 6 0 0 1-6-6V41.3a6 6 0 0 1 6-6 96.5 96.5 0 0 1 48 0 6 6 0 0 1 6 6v20.6a6 6 0 0 1-6 6Z"/>
    <path fill="#E6E6E6" d="M153.6 89.5H95.8a1 1 0 0 1-1-1V74c0-.6.4-1 1-1h57.8c.6 0 1 .4 1 1v14.3c0 .6-.4 1.1-1 1.1Zm-57.8-16c-.3 0-.6.2-.6.6v14.3c0 .4.3.7.6.7h57.8c.4 0 .7-.3.7-.7V74.1c0-.4-.3-.6-.7-.6H95.8Z"/>
    <path fill="#E6E6E6" d="M113.7 78.3a.7.7 0 0 0 0 1.5H149a.7.7 0 0 0 0-1.5h-35.3ZM113.7 82.8a.7.7 0 0 0 0 1.5H149a.7.7 0 0 0 0-1.5h-35.3ZM103.8 84.3a3 3 0 1 0 0-6 3 3 0 0 0 0 6ZM153.6 159.9H95.8a1 1 0 0 1-1-1v-14.4c0-.6.4-1 1-1h57.8c.6 0 1 .4 1 1v14.3c0 .6-.4 1.1-1 1.1Zm-57.8-16c-.3 0-.6.2-.6.6v14.3c0 .4.3.7.6.7l51.3-.5c.3 0 5.7-2 5.7-2.4l1.5-12.1c0-.4-.3-.7-.7-.7H95.8Z"/>
    <path fill="#E6E6E6" d="M113.7 150.8a.7.7 0 1 0 0 1.5H149a.7.7 0 1 0 0-1.5h-35.3ZM103.8 154.7a3 3 0 1 0 0-6 3 3 0 0 0 0 6ZM153.6 130.2H95.8a1 1 0 0 1-1-1v-14.4c0-.6.4-1 1-1h57.8c.6 0 1 .4 1 1v14.4c0 .6-.4 1-1 1Zm-57.8-16c-.3 0-.6.3-.6.6v14.4c0 .3.3.6.6.6l51.3-.5c.3 0 5.7-2 5.7-2.4l1.5-12c0-.4-.3-.7-.7-.7H95.8Z"/>
    <path fill="#E6E6E6" d="M113.7 121.1a.8.8 0 0 0 0 1.5H149a.7.7 0 1 0 0-1.5h-35.3ZM103.8 125a3 3 0 1 0 0-6 3 3 0 0 0 0 6Z"/>
    <path fill="#FFB6B6" d="M240.7 58a8.4 8.4 0 1 0 0-16.9 8.4 8.4 0 0 0 0 17Z"/>
    <path fill="#2F2E41" d="M246.9 56.5c.4.1 1-1 1.5-2.1 1-2.3 1.8-3.8 1.8-5.8 0-1.8-.4-1.3-.9-5.3-.1-1.2-2.3-1.2-2.8-1.9-.8-1 .4-1.4-1.5-2-3.5-1.2-5.1.6-7.4.8 0 0-1.1 1-1.7 1.1-1.1.1-2.7 0-3.4-1.7-.7-1.6-1.1 3-.5 3.5a12 12 0 0 1 1.4 1.8s-2-2.2-2.4-1.3c-.3.7.5 4.2 1.1 4.3.6.2 1.9-1.6 1.6-.9-.7 1.7 3.4 2.7 8.3-.6.1-.1 0 0 .6 1.5.7 1.9.9 2 .9 2.5 0 1.1-.9 1.4-.6 2.1.2.6 1 1 1.5 1 .7-.2.8-1 1.2-1 .4 0 1 .7 1 1.3 0 1.3-1.9 1.6-2.2 3.3-.2 1 2-.6 2.5-.6Z"/>
    <path fill="#FFB6B6" d="M266 124a6 6 0 0 0-.6-2.7l.9-9.9-4.7-.2-.4 10a6 6 0 0 0-.7 2.7c0 2.4 1.1 4.3 2.6 4.4 1.5 0 2.8-1.9 2.9-4.3Z"/>
    <path fill="#2F2E41" d="m256 84.3 3.7 11.5 1 23.4 6.3-.1.4-25.7s-3-19-4-23.2c-1.1-4.3-10.7-2.7-10.7-2.7l3.3 16.8Z"/>
    <path fill="#3F3D56" d="M102.1 54.4a15 15 0 0 0 5.5 1c.8 0 1.7-.2 2.4-.5l2.4-1.3c2.9-1.2 5.8 1 8.6 1.8a6 6 0 0 0 4.1 0c1.5-.7 2.6-2 3.9-3a15 15 0 0 1 9.8-3.3 15 15 0 0 1 10.4 4.6c.2.2.6-.1.3-.4a15.5 15.5 0 0 0-18.7-2.8c-1.5 1-2.7 2-4 3.2-1.3 1-2.7 1.7-4.4 1.5-3-.4-5.5-2.7-8.5-2.5-2 .2-3.3 1.6-5.1 2.1-2.2.6-4.5-.2-6.5-.9-.4 0-.5.4-.2.5Z"/>
    <path fill="#7427C4" d="M107.6 57.1a1.9 1.9 0 1 0 0-3.7 1.9 1.9 0 0 0 0 3.7ZM123.8 57.2a1.9 1.9 0 1 0 0-3.8 1.9 1.9 0 0 0 0 3.8ZM140.2 50.8a1.9 1.9 0 1 0 0-3.7 1.9 1.9 0 0 0 0 3.7ZM31.5 114c-5.5 15.7 1.5 28.2 0 20.1-1.2-6.7 19.7-27 26-22.8-.2-.7-4.2-13-4.5-13 .5-1.4-.3-1.4-.3-2.1-.1-2.8.5-5.6 1.8-8.5.8-2.3.8-4.2 0-5.8a5.8 5.8 0 0 0-3.2-2.7l-4-5c-1.2-1.3-2.7-4-4.4-4l-9-.4c-.3-.1-3.5 2.6-6.5 4-3.4 1.4-2.7 5.3-2.7 5.4l5 14.5L34 98c-.2.7-.2 1.1.3 1.4-.6.5-3.3 13.8-2.9 14.3v.4Z"/>
    <path fill="#FFB6B6" d="M77.8 85.3c-.7.3-1.2.7-1.7 1.3L68.9 89l1.3 3.4 7.1-2.9c.7 0 1.5 0 2.1-.3 1.7-.7 2.7-2.1 2.2-3.2-.4-1-2.1-1.4-3.8-.7Z"/>
    <path fill="#7427C4" d="m39.7 74.5 16.3 22 19.1-5.2-.8-5L59.7 89l-8-12.4c-2.7-5.1-8-6.2-12-2ZM156.7 185.4h-7.4c-1.3 0-2.4-1-2.4-2.4-1.4-3.8-1.6-7.2 0-10.1 0-1.3 1-2.3 2.4-2.3 2.2-1.6 4.7-1.2 7.4 0 1.3 0 2.4 1 2.4 2.3a20 20 0 0 0 0 10.1c0 1.3-1.1 2.4-2.4 2.4Z"/>
    <path fill="#fff" d="M156 175h-6a.4.4 0 0 1 0-.7h6a.4.4 0 0 1 0 .8ZM156 178h-6a.4.4 0 0 1 0-.7h6a.4.4 0 0 1 0 .8ZM156 181h-6a.4.4 0 0 1 0-.7h6a.4.4 0 0 1 0 .8Z"/>
    <path fill="#E6E6E6" d="M287.5 199H.5v.6h287v-.6Z"/>
    <path fill="#FFB6B6" d="M224.5 123.3c.2 2.3 1.6 4.1 3.1 4 1.5-.2 2.6-2.2 2.3-4.6a6 6 0 0 0-.9-2.7l-1.1-10-4.7.7 1.6 9.8a6 6 0 0 0-.3 2.8Z"/>
    <path fill="#2F2E41" d="m231.4 82.9 1.9-17s-9.7-.9-10.4 3.5c-.7 4.3-2.3 23.4-2.3 23.4l2.5 25.6 6.2-.4-.7-23.4 2.8-11.7ZM45 68l-13 1.2-.4-13.6 14.2-.4L45 68Z"/>
    <path fill="#FFB6B6" d="M38.4 66.1a6.8 6.8 0 1 0 0-13.6 6.8 6.8 0 0 0 0 13.6Z"/>
    <path fill="#2F2E41" d="M43.9 52.6c0-1.7-2.2-1.8-3.8-2.3l-1.5-.7c-1.5-.4-3-.1-4.3.7l-4 2.4c-1.8 1.2-2 3-2.8 5.1l-1.3 3c-.7 2 .2 4.6 1 6.5l.3.9-.5 2.7 8.3-.4.7-4.2-1.4-1.6c-.5-.6-.5-1.4 0-2 1.5-2.2 1.2-5.3 1.2-5.3l2 1.1c1.4.2 2.6.2 3.6 0 1.2-.3 2.1-.7 3-1.5l.7 2.5c.1 3-.4 3.8-3.1 6.8l4.7 3-.2-1.7c-.4-3.8.9-6.8.7-10a6 6 0 0 0-3.3-5Z"/>
    <path fill="#FFB6B6" d="M45 110.3c-.6-.2-1.4-.4-2-.3l-7-3.2-1.4 3.3 7.1 2.9c.5.5 1.1 1 1.8 1.2 1.7.7 3.4.3 3.8-.7.4-1.1-.6-2.5-2.3-3.2Z"/>
    <path fill="#7427C4" d="m25.1 76.1-3.5 27.1 17.3 9.5 3-4.1-12.5-8.2 2.9-14.6c1.6-5.5-1.4-9.9-7.2-9.7Z"/>
  </g>
  <defs>
    <clipPath id="a">
      <path fill="#fff" d="M.5 0h287v200H.5z"/>
    </clipPath>
  </defs>
</svg>