<svg xmlns="http://www.w3.org/2000/svg" fill="none" viewBox="-11 0 288 200">
  <g clip-path="url(#a)">
    <path fill="#3F3D56" d="M.1 121.4c0 .2.2.4.5.4h264.8a.4.4 0 1 0 0-.9H.6c-.3 0-.5.2-.5.5Z"/>
    <path fill="#A0616A" d="m169.7 29.6 1.4 17.8 20.2-8.4-11.4-18-10.2 8.6Z"/>
    <path fill="#A0616A" d="M169.1 35a15 15 0 1 0 0-30 15 15 0 0 0 0 30ZM141 160l2.6 22.8-17.8-2.4 5.8-21 9.4.6ZM210.4 163.3l2.6 22.8-17.8-2.4 5.8-21.1 9.4.7Z"/>
    <path fill="#2F2E41" d="M168.1 94.5 135.6 96c-6 .3-10.7 5.6-10.2 11.6l4.6 59 13 .4.4-47.6 25.8 1.5-1-26.5Z"/>
    <path fill="#2F2E41" d="M225.1 94.1s3.3 25 .8 27.6c-2.6 2.6-82.3-2-82.3-2s17.5-25.2 20.6-26c3.2-.7 53.3-3.2 53.3-3.2l7.6 3.6Z"/>
    <path fill="#A0616A" d="M121.8 62.6c-3-4.3-3.3-9.3-.6-11.2 2.7-2 7.4 0 10.4 4.2a13 13 0 0 1 2.4 5.7l12.7 18.1-7.2 5-13-17.7a13 13 0 0 1-4.7-4.1Z"/>
    <path fill="#7427C4" d="m169 40.9 18.5-7.6 35 53.7s-24.4 5.5-32.8 6.6c-8.3 1-17.8-3.3-17.8-3.3L169 40.9Z"/>
    <path fill="#3F3D56" d="m191.5 50-6.7-21 8.7 6.6S218.2 52 218.2 59c0 6.9 7.7 28 7.7 28s8.5 7 5.6 13.6c-3 6.5 3.8 5.6 4.5 10.3.8 4.7-10.3 11.1-10.3 11.1s-2.7-26.7-11.5-26.7c-8.7 0-22.7-45.2-22.7-45.2ZM170.3 40.4l-9 3.6s1.4 25.4 2.8 27.6c1.5 2.2 6.5 13.8 6.5 13.8v3.8s-10.1 3.1-9.8 5c.4 1.7 24 6.8 24 6.8s-4.7-14.5-7.6-19.2c-3-4.8-6.9-41.4-6.9-41.4Z"/>
    <path fill="#3F3D56" d="M164.5 44s-10.6-1.5-12.4 10.9c-1.8 12.3-.6 14-.6 14l-3 7-9.8-10.8-9.5 6.1s17.1 27.6 24 27c7-.8 17-20.8 17-20.8L164.6 44Z"/>
    <path fill="#2F2E41" d="m217 98.1-5.3 76.3-14-.6-3-73.1c0-1.1 1.4-7.3 10.5-7.7 9-.3 11.9 5.1 11.9 5.1ZM196.8 175.8s7.3-2.1 8.4-.7c1 1.5 7.2 2.2 7.2 2.2l1.8 17.8s-5 3.6-5.8 4.4c-.7.7-20 1.4-20.3-3-.4-4.3 5-9.8 5-9.8l3.7-10.9ZM143.4 170.8s2.2-1.9 3 3.2c.6 5.1 3.2 13.5-.5 14.6-3.6 1-40 1.4-40-1.9v-3.2l3.4-2.6 6.5-1s12.7-11.7 14.2-11.7c1.4 0 6.1 4.7 6.1 4.7l7.3-2.1ZM184 28.2s-7.4-8.7-10.3-8c-2.9.7-1 1.8-1 1.8l-7.3-8s-5.8-2.2-11.3 4.7c0 0-3.2-5.8 0-9 3.3-3.3 4.4-3 5.1-4.8.7-1.8 5.8-3.2 5.8-3.2s-.3-2.6 1.3-1.3 5.6 1.3 5.6 1.3 0-1.5 1.7 0c1.6 1.4 3.4.7 3.4.7s0 2.5 1.3 2.5c1.2 0 3.4-1.8 3.8-.3.4 1.4 2.9 2.2 3.3 6.5.3 4.4-1.5 17-1.5 17Z"/>
    <path fill="#fff" d="M124.7 65 83.2 93.6c-1.4 1-3.4.6-4.4-.8l-11.7-17c-1-1.4-.6-3.3.8-4.3l41.5-28.7c1.5-1 3.4-.6 4.4.8l11.7 17c1 1.4.6 3.4-.8 4.4Z"/>
    <path fill="#E6E6E6" d="m113.8 43.7 11.6 17a3 3 0 0 1-.7 4.2l-20.4 14a24.4 24.4 0 0 1-17.8-20.1l23-15.9a3 3 0 0 1 4.3.8Z"/>
    <path fill="#3F3D56" d="M81.4 94.5c-1 0-2.2-.5-2.9-1.5L66.8 76a3.5 3.5 0 0 1 1-4.8l41.4-28.7a3.5 3.5 0 0 1 5 1l11.6 16.9a3.5 3.5 0 0 1-.9 4.9L83.4 93.9c-.6.4-1.3.6-2 .6Zm29.8-51.9c-.5 0-1 .2-1.6.5L68.2 71.8a2.8 2.8 0 0 0-.8 3.9l11.7 16.9a2.8 2.8 0 0 0 3.9.7l41.5-28.6c.6-.5 1-1.1 1.2-1.8 0-.8 0-1.5-.5-2.1l-11.7-17a2.8 2.8 0 0 0-2.3-1.2Z"/>
    <path fill="#7427C4" d="M81.7 86a2.3 2.3 0 0 0 2.7 3.9l4.2-3a2.3 2.3 0 0 0-2.6-3.8l-4.3 3ZM84.6 62.4a3.7 3.7 0 0 0 4.2 6l6.6-4.5a3.7 3.7 0 0 0-4.1-6l-6.7 4.5Z"/>
    <path fill="#fff" d="M123.7 67.5H73.3a3.2 3.2 0 0 1-3.2-3.2V43.8c0-1.8 1.5-3.2 3.2-3.2h50.4c1.8 0 3.2 1.4 3.2 3.2v20.5c0 1.8-1.5 3.2-3.2 3.2Z"/>
    <path fill="#E6E6E6" d="M126.8 43.8v20.5a3 3 0 0 1-3 3.1H99a24.4 24.4 0 0 1-3.2-26.7h28a3 3 0 0 1 3 3Z"/>
    <path fill="#3F3D56" d="M123.7 67.9H73.3c-2 0-3.5-1.6-3.5-3.6V43.8c0-2 1.6-3.6 3.5-3.6h50.4c2 0 3.5 1.6 3.5 3.6v20.5c0 2-1.5 3.6-3.5 3.6Zm-50.4-27a2.8 2.8 0 0 0-2.8 2.9v20.5c0 1.6 1.3 2.8 2.8 2.8h50.4c1.5 0 2.8-1.2 2.8-2.8V43.8c0-1.6-1.3-2.8-2.8-2.8H73.3Z"/>
    <path fill="#7427C4" d="M76.4 60.4a2.3 2.3 0 0 0 0 4.7h5.1a2.3 2.3 0 0 0 0-4.7h-5.1ZM92.1 42.7a3.7 3.7 0 0 0 0 7.3h8.1a3.7 3.7 0 0 0 0-7.3h-8Z"/>
    <path fill="#fff" d="M165.8 138.7h-50.4a3.2 3.2 0 0 1-3.1-3.2V115c0-1.8 1.4-3.2 3.1-3.2h50.4c1.8 0 3.2 1.4 3.2 3.2v20.5c0 1.8-1.4 3.2-3.2 3.2Z"/>
    <path fill="#E6E6E6" d="M169 115v20.5a3 3 0 0 1-3.2 3h-24.7a24.4 24.4 0 0 1-3.2-26.6h28a3 3 0 0 1 3 3Z"/>
    <path fill="#3F3D56" d="M165.8 139h-50.4c-2 0-3.5-1.5-3.5-3.5V115c0-2 1.6-3.6 3.5-3.6h50.4c2 0 3.6 1.6 3.6 3.6v20.5c0 2-1.6 3.5-3.6 3.5Zm-50.4-26.8a2.8 2.8 0 0 0-2.8 2.8v20.5c0 1.6 1.3 2.8 2.8 2.8h50.4c1.6 0 2.8-1.2 2.8-2.8V115c0-1.6-1.2-2.8-2.8-2.8h-50.4Z"/>
    <path fill="#7427C4" d="M118.5 131.6a2.3 2.3 0 0 0 0 4.7h5.2a2.3 2.3 0 0 0 0-4.7h-5.2ZM134.3 113.8a3.7 3.7 0 0 0 0 7.4h8a3.7 3.7 0 0 0 0-7.4h-8Z"/>
    <path fill="#A0616A" d="M169.3 120.2c-4.7 2.4-9.7 2-11.2-1-1.5-2.9 1-7.2 5.6-9.6a13 13 0 0 1 6-1.6l19.7-10 4 7.9-19.4 10.3a13 13 0 0 1-4.7 4Z"/>
    <path fill="#3F3D56" d="M191.7 35.3s20.4-1.1 24.7 9.8c4.4 10.9 8 46.5 8 46.5l-44.3 24-7.6-11.7 29.7-23.2-10.5-45.4Z"/>
  </g>
  <defs>
    <clipPath id="a">
      <path fill="#fff" d="M.1 0H266v200H.1z"/>
    </clipPath>
  </defs>
</svg>