<svg xmlns="http://www.w3.org/2000/svg" fill="none" viewBox="-54 0 288 200">
  <g clip-path="url(#a)">
    <path fill="#E6E6E6" d="M171.1 188.5a6.9 6.9 0 0 1-6.6-1.2c-2.4-2-3-5.1-3.7-8.1l-1.7-8.9 3.6 2.6c2.7 1.8 5.4 3.7 7.2 6.3 1.9 2.7 2.7 6.3 1.2 9.1"/>
    <path fill="#F2F2F2" d="M170.8 199.2c.4-2.7.8-5.5.5-8.2a13 13 0 0 0-2.5-6.8c-.8-1-1.8-1.9-2.9-2.6-.3-.2-.5.3-.2.5 1.9 1.2 3.4 3 4.2 5 1 2.4 1 5 1 7.5a62.4 62.4 0 0 1-.4 4.8.3.3 0 0 0 .3-.2Z"/>
    <path fill="#fff" d="M157.5 154.1H3.5V0h154v154.1Z"/>
    <path fill="#E5E5E5" d="M157.5 154.1H3.5V0h154v154.1ZM5.7 151.8h149.5V2.3H5.7v149.5Z"/>
    <path fill="#E5E5E5" d="M130.2 24.1H63.5v2h66.7v-2ZM130.2 29.5H63.5v2h66.7v-2ZM130.2 35H63.5v2h66.7v-2ZM130.2 70.5H63.5v2.1h66.7v-2ZM130.2 76H63.5v2h66.7v-2ZM130.2 81.3H63.5v2.1h66.7v-2ZM130.2 117H63.5v2h66.7v-2ZM130.2 122.3H63.5v2.1h66.7v-2ZM130.2 127.7H63.5v2.1h66.7v-2Z"/>
    <path fill="#3F3D56" d="m36.8 40.7-3.6-1.5-.1-1.8-6.4-.6L26 39l-2.3.8-.2.1a1.1 1.1 0 0 0-.5 1.2l.2.5.5.3.1.1.8.4h.2a10.9 10.9 0 0 0 1.7.6 13.4 13.4 0 0 0 7.5-.1l1.7-.7.4-.2.3-.2a12.5 12.5 0 0 0 1.2-.7l-.7-.4Z"/>
    <path fill="#3F3D56" d="m24.9 41.7-.4-1.8h-1c-.5 0-.8.2-1.1.4l-.6.5 1 .7a11 11 0 0 0 .8.4l.1.1.8.4h.2l.4.2-.2-.9Z"/>
    <path fill="#FFB8B8" d="M29.6 35.7a4.6 4.6 0 1 0 0-9.2 4.6 4.6 0 0 0 0 9.2Z"/>
    <path fill="#2F2E41" d="M26.6 28.9c.5.5 1.3.7 2 .8 1.7 0 3.4 0 5.1-.5.1 1-.1 2.1.4 3 .3-1 .5-2 .5-3.1l-.1-1.3a1.2 1.2 0 0 0-1-.8c.3-.3.7-.4 1-.5l-1.4-.7.4-.4-2.6-.2.7-.5c-1.1-.1-2.3-.2-3.4 0a3 3 0 0 0-1.5.4c-.5.3-.7.9-.5 1.3a2 2 0 0 0-1.5 1.3c-.1.5-.2 1-.1 1.5.1.8.3 1.7.6 2.5l1.4-2.8Z"/>
    <path fill="#3F3D56" d="M42.5 26.1a13.4 13.4 0 1 0-22.8 13.2 13 13 0 0 0 1.9 1.8l.2.2 1 .6a11 11 0 0 0 .8.5h.1l.8.5h.2a10.7 10.7 0 0 0 1.7.6 13.4 13.4 0 0 0 7.5-.2l1.7-.6.4-.2.3-.2a12.5 12.5 0 0 0 1.5-1h.1A13.4 13.4 0 0 0 42.5 26Zm-5 14.5a4.2 4.2 0 0 1-.5.4l-.2.1-.2.2-.6.3-.3.2a9.5 9.5 0 0 1-1.8.8h-.2a12.6 12.6 0 0 1-8.7-.3h-.1l-.1-.1-.8-.4a12 12 0 0 1-1-.6h-.1a12 12 0 0 1-.5-.4l-.4-.3-.5-.4-.3-.2a12.2 12.2 0 0 1-1.3-1.5 12.7 12.7 0 1 1 17.6 2.2Z"/>
    <path fill="#fff" d="M42.5 72.6a13.4 13.4 0 1 0-22.8 13.1 13 13 0 0 0 3 2.7l.9.4h.1l.8.5h.2a13 13 0 0 0 6.4 1c1 0 1.9-.3 2.8-.6.6-.1 1.1-.4 1.7-.6l.4-.2.3-.2a12.5 12.5 0 0 0 1.5-1h.1a13.4 13.4 0 0 0 4.6-15.1Z"/>
    <path fill="#2F2E41" d="M34.3 82.5a2 2 0 1 0 0-4 2 2 0 0 0 0 4Z"/>
    <path fill="#2F2E41" d="M34.8 78.5a2 2 0 0 1 1.8 3 2 2 0 1 0-3.4-2.2 2 2 0 0 1 1.6-.8Z"/>
    <path fill="#2F2E41" d="M30.5 80.5a5.9 5.9 0 1 0 0-11.8 5.9 5.9 0 0 0 0 11.8Z"/>
    <path fill="#2F2E41" d="M25.9 71a5.9 5.9 0 0 1 8.1-.7l-.1-.1a5.9 5.9 0 1 0-7.8 8.8l.1.1A5.9 5.9 0 0 1 26 71Z"/>
    <path fill="#A0616A" d="M30.4 80.4a3.8 3.8 0 1 0 0-7.6 3.8 3.8 0 0 0 0 7.6Z"/>
    <path fill="#7427C4" d="M37.2 86.5v1.3a12.4 12.4 0 0 1-1 .6l-.4.2-1.7.7a13.3 13.3 0 0 1-9.2-.4l-.2-.1-.8-.4-.9-.5a13.2 13.2 0 0 1-3-2.6c0-.3 0-.5.2-.8v-.2c.5-.8 1.3-1 2.2-1h2.8c2.2-.3 1.9-1.6 2-2.3 0-.7.7 0 .7 0 1.2.6 2.6.8 4 .7h.7c.6 0 .5 0 .3.2l-.4.2-.2 1.5c0 .9 1.6 1.3 1.7 1.3H36a2.2 2.2 0 0 1 1.3 1.6Z"/>
    <path fill="#2F2E41" d="M25 88a11.3 11.3 0 0 1 0 .9l-.3-.1-.8-.4-.9-.5v-.3l.1-.5c.1-1.3-.1-2.6-.7-3.8V83s.7-.6 1.6 0l.2.2c.6.7.8 3 .8 4.8ZM35.9 87.7v.9l-1.8.7V88.5l-.1-3.3a.6.6 0 0 1 .5-.6h1.2c.1 0 .2.1.2.4v2.7ZM27.2 71.9v3.8h.9l1.1-1.2-.1 1.2h3.8l-.2-1.2.5 1.2h.6v-3.8h-6.6Z"/>
    <path fill="#A0616A" d="M26.6 76.4c.2 0 .3-.3.3-.6s-.1-.5-.3-.5c-.2 0-.3.2-.3.5s.1.6.3.6ZM34.3 76.4c.2 0 .3-.3.3-.6s-.1-.5-.3-.5c-.2 0-.3.2-.3.5s.1.6.3.6Z"/>
    <path fill="#7427C4" d="M38 87.2a12.6 12.6 0 0 1-1.7 1.2v-2.7a68.5 68.5 0 0 0 1.8 1.5Z"/>
    <path fill="#3F3D56" d="M42.5 72.6a13.4 13.4 0 1 0-22.8 13.1 13 13 0 0 0 3 2.7l.9.4h.1l.8.5h.2a13 13 0 0 0 6.4 1c1 0 1.9-.3 2.8-.6.6-.1 1.1-.4 1.7-.6l.4-.2.3-.2a12.5 12.5 0 0 0 1.5-1h.1a13.4 13.4 0 0 0 4.6-15.1Zm-5 14.5a4.2 4.2 0 0 1-.5.3 4 4 0 0 1-.4.3l-.6.3-.3.2a9.4 9.4 0 0 1-1.8.8h-.2a12.6 12.6 0 0 1-8.7-.3l-.2-.1-.8-.4a12 12 0 0 1-2.5-1.7l-.3-.2a12.2 12.2 0 0 1-1.3-1.5 12.7 12.7 0 1 1 17.6 2.3Z"/>
    <path fill="#2F2E41" d="M30 129.4a5.3 5.3 0 1 0-.1-10.5 5.3 5.3 0 0 0 0 10.5Z"/>
    <path fill="#2F2E41" d="M25.8 121.3c.9-.8 1-2 .4-2.7-.6-.6-1.8-.4-2.7.4-.8.9-1 2-.4 2.7.7.6 1.9.5 2.7-.4ZM35.4 119.6c.3-.8-.3-1.8-1.4-2.3-1-.5-2.3-.2-2.6.6-.4.9.2 2 1.3 2.4 1.1.5 2.3.2 2.7-.7Z"/>
    <path fill="#CACACA" d="m36.2 134.3-.6-1a2.4 2.4 0 0 0-4.5 2l.2.7.2.7a13.7 13.7 0 0 0 4-1.2l.5-.2a8.8 8.8 0 0 0 .6-.4l-.4-.6Z"/>
    <path fill="#FFB6B6" d="M30 129.9a4.5 4.5 0 1 0 0-9 4.5 4.5 0 0 0 0 9Z"/>
    <path fill="#CACACA" d="M36.5 134.1a9.7 9.7 0 0 0-1.8-2.2c-.5-.4-1.1-.6-1.8-.6h-6.2A2.7 2.7 0 0 0 24 134a2.7 2.7 0 0 0 .3 1l.3.6a14.8 14.8 0 0 0 4 1 14.1 14.1 0 0 0 2.5 0h.4a13.7 13.7 0 0 0 4-1.2l.5-.2a8.7 8.7 0 0 0 .6-.4l.3-.1-.4-.7Z"/>
    <path fill="#CACACA" d="M27.8 132a2.4 2.4 0 0 0-3.2 1.2l-.6.9-.3.4-.4.6.3.1h.1l.8.5h.1a14.7 14.7 0 0 0 4 1l.2-.7.2-.7a2.4 2.4 0 0 0-1.2-3.2Z"/>
    <path fill="#2F2E41" d="M25.4 122.6a6 6 0 0 0 3.5 1c-.5.4-1 .6-1.5.7 1.6.3 3.3.3 5 0 .3 0 .7-.2 1-.4a1.3 1.3 0 0 0 .7-.8c0-.6-.4-1.2-1-1.6a6.5 6.5 0 0 0-5.4-1.1 3 3 0 0 0-1.6 1 1.5 1.5 0 0 0-.2 1.7l-.5-.5Z"/>
    <path fill="#3F3D56" d="M42.5 119a13.4 13.4 0 1 0-21.8 14.2l.3.3a8.5 8.5 0 0 0 .8.6 13.7 13.7 0 0 0 1.5 1l.3.1h.1l.8.5h.1a14.7 14.7 0 0 0 4 1 14.1 14.1 0 0 0 2.5 0h.4a13.6 13.6 0 0 0 4-1.2l.5-.2a8.7 8.7 0 0 0 .6-.4l.3-.1a10.3 10.3 0 0 0 1-.8 13.4 13.4 0 0 0 4.6-15Zm-5 14.5-.2.1-.3.2-.2.2h-.2v.1l-.4.2-.2.1-.3.2-.4.2-1.4.6h-.2a12.7 12.7 0 0 1-8.7-.3h-.1l-.1-.1-.7-.3-.2-.1a6.6 6.6 0 0 1-.7-.5l-.3-.1a14 14 0 0 1-.5-.4l-.4-.2-.5-.5-.3-.2a12 12 0 0 1-1-1l-.2-.4h-.1a12.7 12.7 0 1 1 17.6 2.2Z"/>
    <path fill="#3F3D56" d="M52.2 53.5A31.5 31.5 0 1 0 54 100l38.7 32.6a2.9 2.9 0 0 0 3.7-4.4L57.8 95.6a31.5 31.5 0 0 0-5.6-42.1Zm-2.4 39A23.6 23.6 0 1 1 13.7 62a23.6 23.6 0 0 1 36 30.4Z"/>
    <path fill="#3F3D56" d="M16.5 95.2a23.6 23.6 0 0 1-4-31.7A24.4 24.4 0 0 0 6.7 73a23.6 23.6 0 0 0 41.7 20.8 23.6 23.6 0 0 1-31.9 1.4Z" opacity=".3"/>
    <path fill="#FFB6B6" d="M130.1 133.8a3.3 3.3 0 0 0-1-4.9l-7-28.8-5 1.6 7.5 28.7a3.3 3.3 0 0 0 5.5 3.4Z"/>
    <path fill="#3F3D56" d="m126.5 115.4-3.8 3.2-5.2 4.6-2.3-12-.3-1.2-.2-1 5.3-9.2 4.5.2h.3V100.9l1 8.1v.2l.7 6.3Z"/>
    <path fill="#FFB6B6" d="M102 196h-3.8l-1.7-14.4h5.4V196Z"/>
    <path fill="#2F2E41" d="M102.9 199.6h-12v-.2a4.7 4.7 0 0 1 4.7-4.6h7.3v4.8Z"/>
    <path fill="#FFB6B6" d="M140.8 196.3H137l-1.7-14.4h5.5v14.4Z"/>
    <path fill="#2F2E41" d="M141.7 199.9h-12v-.2a4.7 4.7 0 0 1 4.7-4.6h7.3v4.8ZM143.7 190.6l-10 1.5-14.5-49.3-15.5 49.6-11.2-1.5 14.5-57.7v-4.5l2-6.8-.2-1.9-1.4-13-.7-5.5v-.4a1.2 1.2 0 0 1 1-1.3l4.6-1h7.7l4.5 1.2.3.1h.1v.7l-1.1 8.8v.5l-1 8.5-.3 1.9c8.8 6.4 9.1 12.7 9.1 12.7l12.1 57.4Z"/>
    <path fill="#FFB6B6" d="M115.2 95a7.4 7.4 0 1 0 0-15 7.4 7.4 0 0 0 0 15Z"/>
    <path fill="#3F3D56" d="m123 118.8-14.7 2 .3 2 14.7-2-.2-2Z"/>
    <path fill="#FFB6B6" d="m88.6 121.3.4.4 14.5-3.8 1-3.5 5.5.8-1.1 6.4a2.4 2.4 0 0 1-2.2 2l-17 1.8a3.2 3.2 0 1 1-1.1-4Z"/>
    <path fill="#3F3D56" d="m111 101.7-2.6-2c-.7-.2-1.6.5-1.8 1.2l-3.7 14.9 7.6 5.5 1-1.7-.5-18Z"/>
    <path fill="#3F3D56" d="M125.8 109a20.3 20.3 0 0 1-2.6.8 20 20 0 0 1-6.3.6c-.7 0-1.3-.2-2-.4a8.8 8.8 0 0 1-4.3-2.7 6.4 6.4 0 0 1-1.3-5.5 7.7 7.7 0 0 1 .7-1.8l3.5-1.2h6.5l4.5 1.2h.3v.1h.1v.7l.9 8.1Z" opacity=".2"/>
    <path fill="#2F2E41" d="M109.5 81.4c-1.4-.2-2.9-.1-4 .8-1 .9-1.4 2.7-.4 3.7 1 .8 2.4.6 3.6.9a4.8 4.8 0 0 1 3.7 4.6c0 3-3 5.4-3.5 8.4-.3 2.1.5 4.3 2 5.8a9.5 9.5 0 0 0 5.7 2.4c2.1.2 4.2 0 6.3-.6 2-.6 4-1.3 5.7-2.6 1.8-1.2 3.2-3 3.7-5 .6-2 .2-4.4-1.3-6-1.6-1.7-4.3-2.4-5.7-4.3-1.6-2.2-1-5.4-2.3-7.8a7.2 7.2 0 0 0-4.1-3.2 18.6 18.6 0 0 0-8.2-.5c-.9.4-1.7 1.2-1.7 2.1 0 1 .5 1.3.5 1.3Z"/>
    <path fill="#CACACA" d="M179.2 200H63.7a.3.3 0 0 1 0-.6h115.8a.3.3 0 0 1-.3.6Z"/>
  </g>
  <defs>
    <clipPath id="a">
      <path fill="#fff" d="M.4 0h179.1v200H.5z"/>
    </clipPath>
  </defs>
</svg>