<svg xmlns="http://www.w3.org/2000/svg" fill="none" viewBox="0 0 588 362">
    <path fill="#7427C4" d="M588 232.5a120.7 120.7 0 0 1-13.4 55c0 10.1-2 20.1-6.1 29.3a75.3 75.3 0 0 1-69.2 45.2H111.6a97.6 97.6 0 0 1-49.1-13.2h-.2a100 100 0 0 1-19-14.6 93 93 0 0 1-28.3-67 117 117 0 0 1-15-57.9c0-27 8.8-51.6 23.2-70.2a98.7 98.7 0 0 1 21-20.2 87.5 87.5 0 0 1 28-12.7A77.6 77.6 0 0 1 90 104h.8c1.8 0 3.6 0 5.3.2l.6-1.1A158 158 0 0 1 108 84.7l.4-.6.8-1.1a146.7 146.7 0 0 1 12.5-15.5l2.1-2.3.3-.3.8-.8a185 185 0 0 1 22.6-20.3l.8-.6 3.8-2.8a202.4 202.4 0 0 1 45-24.5A223 223 0 0 1 281.5 0 232 232 0 0 1 340 7.4a2.1 2.1 0 0 0 1.8 1h1.7a177.8 177.8 0 0 1 14.2 4.4l1 .4a214.8 214.8 0 0 1 55.7 29.7 92.9 92.9 0 0 1 21.6-10 79.4 79.4 0 0 1 39-1.5A86.4 86.4 0 0 1 518.8 56 102.2 102.2 0 0 1 541 90.8l.3.6c2.1 5.4 3.8 11 5.1 16.6l.2 1c1.2 5.4 2 11 2.5 16.6v.6a124.1 124.1 0 0 1 0 16.7v.9l-.2 2.2a94.8 94.8 0 0 1 15 15 117.1 117.1 0 0 1 24.2 71.5Z" opacity=".1"/>
    <path fill="#7427C4" d="M531.6 352.6c0 3.5-11.8 6.7-32.3 9.4H111.6a97.6 97.6 0 0 1-49.1-13.1l-.2-.2c5.8-2.1 16.5-4.1 31-6h.6c6.5-.8 13.7-1.6 21.7-2.3h.6l20-1.6h.7l8.4-.6h1.1c20.7-1.4 44.3-2.4 69.9-3a1583 1583 0 0 1 32.9-.8 2989.4 2989.4 0 0 1 151 1.6l14.5.7 4 .1 15.5.9c59 3.3 97.4 8.8 97.4 15Z" opacity=".1"/>
    <g opacity=".2">
      <path fill="#3F3D56" d="M339.6 331.8c0 .5 0 1-.2 1.6l-10.5-1.5v-.4c0-1.5.5-3 1.3-4.3 1-1.6 2.6-2.6 4.3-2.6 1.7.1 3.2 1.2 4.1 2.9.7 1.3 1 2.8 1 4.3Z"/>
      <path fill="#3F3D56" d="M339.9 323.3c.1-3.9-2.2-7.1-5.1-7.2-3-.1-5.5 3-5.6 6.8-.1 3.9 2.2 7.1 5.1 7.2 3 0 5.5-3 5.6-6.8Z"/>
      <path fill="#3F3D56" d="M340.2 314.7c.1-3.9-2.2-7-5.1-7.2-3 0-5.5 3-5.6 6.9-.1 3.8 2.2 7 5.1 7.1 3 .1 5.5-3 5.6-6.8Z"/>
      <path fill="#3F3D56" d="M340.4 306.2c.2-4-2.1-7.1-5-7.2-3-.1-5.5 3-5.6 6.8-.2 3.9 2.1 7 5 7.2 3 0 5.5-3 5.6-6.8Z"/>
      <path fill="#3F3D56" d="M340.7 297.6c.1-3.9-2.2-7-5.1-7.2-3 0-5.4 3-5.6 6.9 0 3.8 2.2 7 5.1 7.1 3 .1 5.5-3 5.6-6.8Z"/>
      <path fill="#7427C4" d="m317.2 238.2-1.9-3 14.1-1.8-15.2-.4a25.7 25.7 0 0 1 .2-20.3l20 11.2-18.3-14.4a25.6 25.6 0 1 1 41.3 30c1.1 1.5 2 3 2.8 4.8l-18.5 8.9 19.6-6a25.7 25.7 0 0 1-4.9 24 25.6 25.6 0 1 1-40.2-1.3 25.6 25.6 0 0 1 1-31.7Z"/>
      <path fill="#3F3D56" d="M362.4 255.5a25.5 25.5 0 0 1-6 15.7 25.6 25.6 0 1 1-40.2-1.3c-3.3-4.5 46.3-17.3 46.2-14.4Z" opacity=".1"/>
    </g>
    <g opacity=".2">
      <path fill="#3F3D56" d="M263.7 331.8c0 .5 0 1-.2 1.6l-10.4-1.5v-.4c0-1.5.4-3 1.2-4.3 1-1.6 2.6-2.6 4.3-2.6 1.7.1 3.2 1.2 4.2 2.9.7 1.3 1 2.8 1 4.3Z"/>
      <path fill="#3F3D56" d="M264 323.3c.1-3.9-2.2-7.1-5.1-7.2-3-.1-5.4 3-5.6 6.8 0 3.9 2.2 7.1 5.2 7.2 2.9 0 5.4-3 5.5-6.8Z"/>
      <path fill="#3F3D56" d="M264.3 314.7c.1-3.9-2.2-7-5.1-7.2-3 0-5.5 3-5.6 6.9-.1 3.8 2.2 7 5.1 7.1 3 .1 5.5-3 5.6-6.8Z"/>
      <path fill="#3F3D56" d="M264.6 306.2c0-4-2.2-7.1-5.2-7.2-3-.1-5.4 3-5.5 6.8-.1 3.9 2.1 7 5 7.2 3 0 5.5-3 5.7-6.8Z"/>
      <path fill="#3F3D56" d="M264.8 297.6c.1-3.9-2.1-7-5.1-7.2-3 0-5.4 3-5.6 6.9 0 3.8 2.2 7 5.2 7.1 3 .1 5.4-3 5.5-6.8Z"/>
      <path fill="#7427C4" d="m241.3 238.2-1.9-3 14.1-1.8-15.2-.4a25.7 25.7 0 0 1 .2-20.3l20 11.2-18.3-14.4a25.6 25.6 0 1 1 41.3 30c1.1 1.5 2 3 2.8 4.8l-18.5 8.9 19.6-6a25.7 25.7 0 0 1-4.9 24 25.6 25.6 0 1 1-40.2-1.3 25.6 25.6 0 0 1 1-31.7Z"/>
      <path fill="#3F3D56" d="M286.5 255.5a25.5 25.5 0 0 1-6 15.7 25.6 25.6 0 1 1-40.2-1.3c-3.3-4.5 46.3-17.3 46.2-14.4Z" opacity=".1"/>
    </g>
    <g opacity=".2">
      <path fill="#3F3D56" d="M471 337.3c0 1-.1 2-.4 3l-20.2-2.9v-.8c.1-2.9 1-5.7 2.4-8.1 2-3.2 5-5.1 8.3-5 3.4 0 6.2 2.2 8 5.5 1.4 2.5 2 5.4 2 8.3Z"/>
      <path fill="#3F3D56" d="M471.6 320.8c.2-7.4-4.2-13.6-9.9-13.8-5.7-.2-10.5 5.7-10.7 13.2-.2 7.4 4.2 13.6 9.8 13.8 5.7.1 10.5-5.7 10.8-13.2Z"/>
      <path fill="#3F3D56" d="M472 304.3c.3-7.4-4.1-13.6-9.8-13.8-5.7-.1-10.5 5.8-10.7 13.2-.2 7.4 4.2 13.6 9.9 13.8 5.6.2 10.4-5.7 10.7-13.2Z"/>
      <path fill="#3F3D56" d="M472.6 287.9c.2-7.5-4.2-13.6-9.9-13.8-5.6-.2-10.4 5.7-10.7 13.1-.2 7.5 4.2 13.6 9.9 13.8 5.7.2 10.5-5.7 10.7-13.1Z"/>
      <path fill="#3F3D56" d="M472.5 270.7c.3-7.5-4.2-13.7-9.9-13.8-5.6-.2-10.4 5.7-10.6 13.1-.3 7.5 4.2 13.7 9.8 13.8 5.7.2 10.5-5.7 10.7-13.1Z"/>
      <path fill="#7427C4" d="M427.9 157.2a49.5 49.5 0 0 1-3.7-5.8l27.2-3.6-29.3-.7a49.5 49.5 0 0 1 .3-39l38.6 21.5-35.3-27.7a49.3 49.3 0 1 1 79.6 57.7c2 2.9 3.9 6 5.3 9.2L475 185.9l37.8-11.4a49.4 49.4 0 0 1-9.4 46 49.3 49.3 0 1 1-77.5-2.4 49.4 49.4 0 0 1 2-61Z"/>
      <path fill="#3F3D56" d="M514.9 190.4c-.4 11-4.4 21.7-11.5 30.2A49.3 49.3 0 1 1 426 218c-6.4-8.6 89-33.2 88.9-27.7Z" opacity=".1"/>
    </g>
    <path fill="#F1C0C0" d="M78.8 338.1H91.4l9.3-151.8L193.2 32l-4-4.3v-11l-100 166.2L78.8 338Z"/>
    <path fill="#3F3D56" d="M84.6 338.1h6.8l9.3-151.8L193.2 32l-4-4.3L93.8 184l-9.2 154.1Z" opacity=".1"/>
    <path fill="#F1C0C0" d="m63.4 339.4 239.5 18.4h.2L535 343.5h.1v-9.8L279.7 329l-213.2-.2H65l-.2 1.1-1.4 9.5Z"/>
    <path fill="#3F3D56" d="m63.4 339.4 239.5 18.4h.2L535 343.5l.1-.2V334h-.2l-232 7.8-236.4-12.9-.4.3-1.3.8-1.4 9.5Z" opacity=".1"/>
    <path fill="#3F3D56" d="m63.4 339.4 239.5 18.4v-16.1L66.1 329l-1.3.8-1.4 9.5Z" opacity=".1"/>
    <path fill="#F1C0C0" d="m189.1 27.4 105.7 113.5-3.3 199.5 9 1.1h9.1l1-192 197.8 66 3.4 117.8 7.2.8 2.4.3-5.6-127L309 134.7l-113.3-118H189v10.7Z"/>
    <path fill="#3F3D56" d="m309.8 145.8.9 3.6 197.7 66.1 3.4 117.8 7.2.8-5.7-121-203.5-67.3ZM189.1 27.4l105.7 113.5-3.3 199.5 9 1.1 2.4-207.2L189.1 16.8v10.6Z" opacity=".1"/>
    <path fill="#F1C0C0" d="m310.2 225.8 72.6 14.3 127 25.1 5.8-2.3v-.4l-.4-8.2L310.3 213v13Z"/>
    <path fill="#3F3D56" d="m382.8 240.1 127 25.1 5.8-2.3v-.4L382.8 240Z" opacity=".1"/>
    <path fill="#F1C0C0" d="m387.6 175.2 2 108 1 55.5 9-.3 5.6-.2-1.8-161.5-3.8-1.3-.9-.2h-11Z"/>
    <path fill="#3F3D56" d="m387.7 175.1 2 108.2 1 55.4 8.9-.3V175.1h-11.9Z" opacity=".1"/>
    <path fill="#3F3D56" d="m247.7 202.8 1.5 1c.6.4 1.1 1 1.5 1.6 2.2 2.8 4.2 6 4 9.5a3.9 3.9 0 0 1-1.2 2.7c-.8.8-2.1.8-3.3.8-1.2 0-2.6 0-3.6-.6-1.1-.7-2-2-3.3-2h-.6c-.4 0-.5-.6-.8-1-.5-.7-1.6-.5-2.3-.2-.8.3-1.7.7-2.5.4-.4-.3-.8-.6-1-1-1.9-3-2.3-6.7-2.6-10.2-.2-2-1.9-9.3 2.7-7.7 2 .8 3.8 2.2 5.6 3.2l6 3.5Z"/>
    <path fill="#3F3D56" d="M243.3 203.5a2.2 2.2 0 0 0 2.7-.1c.8-.7 1.2-1.6 1.4-2.6.5-.2.7.5 1 .9.6.7 1.7.7 2.2 1.4.4.5.3 1.2.6 1.7.3.8 1 1.2 1.6 1.7.6.7 1 1.4 1.1 2.2l.9 2.5c.3 1 .6 2 .7 3.2a4.1 4.1 0 0 1-1 3c-1 1.2-2.8 1.3-4.4 1.3-.6 0-1.1 0-1.6-.2-1.4-.4-2.3-1.9-2.7-3.3-.4-1.4-.3-3-.6-4.4-.2-1.4-.6-2.8-1.2-4.2-.4-1-1.7-2.6-1.6-3.7.3 0 .6.4.9.6Z"/>
    <path fill="#BE6F72" d="M245 198.4c-.2-.7-.3-1.4-.3-2.2 0-1.5.7-2.9 1.3-4.2l-5.7.8c-.7 0-1.4.2-1.8.8a2 2 0 0 0 0 1.8l.7 1.8c0 .5 0 1 .2 1.6.1.4.4.7.7 1 1.6 1.8 2.8 4 4 6 0 0 3.5-2.7 3.4-3.5-.1-.5-1.1-1.1-1.4-1.6a8 8 0 0 1-1-2.3Z"/>
    <path fill="#F1C0C0" d="M294 178.9v5l-84.2 16.4-4.4 2.6h-15v-2.8l82.7-20L294 179Z"/>
    <path fill="#3F3D56" d="m294 183.8-84.2 16.5-4.4 2.6h-15l83.3-17.8 20.3-1.3Z" opacity=".1"/>
    <path fill="#7427C4" d="M226.4 318.6a6.5 6.5 0 0 0-8-1.7l-.7.6c-.5.7-.2 1.7-.1 2.5.1 2.1-1.6 3.9-3 5.3-.9.8-1.7 1.7-2 2.7-.4 1.1-.2 2.5.8 3a14.8 14.8 0 0 0 6.2.5c1.6-.3 3.2-1.2 3.9-2.6.1-.4.3-.8.6-1 .9-.8 2.2 0 3.2-.5.9-.4.9-1 .9-1.9 0-2.3-.3-5-1.8-6.9ZM238.4 318.5c.6 1.7.7 3.4.8 5.1 0 1 0 2.1-.5 3-.5.8-1.6 1.2-2.6 1.5-2 .4-4.5 0-5.8-1.7-1-1.2-1.3-3-1.1-4.6.2-1.4.5-3-.5-3.9l-.8-.7c-.5-.6-.4-1.5-.1-2.3l.8-2.2c0-.4 6.7.2 7.3.5.9.5.8 1.2 1 2 .4 1.2 1 2.2 1.5 3.3Z"/>
    <path fill="#3F3D56" d="M239.6 246.8c1.3.8 1.8 2.5 2 4 .6 4.3-.4 8.6-.5 13 0 6 1.7 12.1.2 18-.9 3.5-.1 7.5-1 11-.2 1-.7 2-.9 3.1-.5 2.3 0 4.7.7 6.9.3.6.4 1.2.5 1.8 0 1-.3 2-.8 2.9l-3 7c-.3.8-1.6 1-2.5 1-1.6.3-3.3.4-4.6-.6-1.2-1-1.6-2.6-1.7-4.2-.4-3-.6-5.9-.5-8.9 0-.7 0-1.5-.3-2.3-.2-.8-.8-1.6-1-2.5-.2-1.1.4-2.3.6-3.5.2-1 .1-2.1 0-3.2l-.7-4.8c-.4-2.2.1-4.4.5-6.6.3-2.1-.1-4.3-.5-6.4 0 1.7-.2 3.4-.6 5l-1 2.4c-1 3.6 1.2 7.5 1 11.2-.2 1.8-.9 3.5-.7 5.2.1 1.3.7 2.5 1.1 3.7.4 1.2.6 2.6 0 3.7-1.6 3-.4 7.3 1 10.4.4.6.6 1.1.8 1.7.5 1.4.1 3 .2 4.5a2.8 2.8 0 0 1-2.3-.8l-.6-.7c-.6-.6-1.3-1-2.1-1.3-.5-.3-1-.4-1.5-.3a3 3 0 0 0-1.4.8c-.5.5-1 .9-1.6 1.2l-.8.4a.7.7 0 0 1-.7-.4l-.1-.2c-.2-1.6-.3-3-.3-4.6 0-2.6-3.1-4.4-3.5-7-.3-2 .3-4.2 0-6.3 0-1-.3-2.1-.3-3.2l.2-2v-2.4l-.2-2.4c-.1-2.4-.3-4.8-1.2-7a23.8 23.8 0 0 1-2-8c0-1.8 0-3.5-.2-5.3-.2-1.6-.6-3.2-.5-4.7.1-1.3.5-2.5.6-3.7.2-2.4-.7-4.7-1.4-7-.7-2.2-1.2-4.7-.3-6.9l.6-.9c.4-.2.8-.4 1.2-.4a91.3 91.3 0 0 1 26-1.7c1.5 0 2.9.5 4.1 1.3Z"/>
    <path fill="#BE6F72" d="M211.3 193.7a8 8 0 1 0 0-16 8 8 0 0 0 0 16Z"/>
    <path fill="#BE6F72" d="M209.7 195.7v1.4l-.5.8c-.8 1-1.6 2-2.6 2.8.5 1 1.4 2 2.4 2.4a13.9 13.9 0 0 0 5 1c.6 0 1.1-.3 1.6-.6l4.4-2.7a9 9 0 0 0 1.9-1.3c.8-.9 1.2-2 1.2-3.1l-.1-.6a1 1 0 0 0-.6-.3 5.4 5.4 0 0 1-3.5-3c-.7-1.5-1-3-1.2-4.7l-4.8 2.5-2.1 1.1c-.5.2-1.4.4-1.7.8-.7.8.5 2.5.6 3.5Z"/>
    <path fill="#3F3D56" d="M206.7 199.3c-.7.5-1.2 1.2-1.6 2-.3 1 0 2.1.3 3.1 1.3 4.2 2.3 8.5 3 12.9.4 3 .6 6 .8 9 .4 6.2 1 16.1 1.8 22.3 3 0 6-.8 9-1.1 5.5-.6 11.2.8 16.6-.5-1.3-5.2-2.6-14.1-4-19.3-.5-2-1-4.2-1.1-6.3-.2-1.5 0-3 0-4.6a128.6 128.6 0 0 0-1.6-19.4 2 2 0 0 0-.5-1.1c-.5-.4-1.2-.3-1.8-.2-1.8.2-3.6-.2-5.2-1.2-.6-.5-1.5-1-2.1-.5-.3.3-.5.6-.5 1a5.3 5.3 0 0 1-3.1 3.1c-1.5.5-3 .8-4.5 1-.4 0-1 0-1.3-.2-.8-.5-.8-2-1.7-2.1-.8-.1-2 1.6-2.5 2Z"/>
    <path fill="#7427C4" d="M218.5 211.5c-1.9-1.8-2.7-4.3-4-6.5-1-1.5-2.1-2.8-3.5-3.8-.7-.5-1.3-1-1.8-1.6-.5-.6-.9-1.4-1.6-1.6a1.9 1.9 0 0 0-1.7.5l-1.2 1.3c-2.1 2.2-5.9 2.5-7.5 5-.5.6-.8 1.2-1 2-.4 3.6.5 7.3 2.7 10.4.5.7 1.1 1.2 1.9 1.5-.1.9 0 1.8.3 2.7 1 3.2 2.1 6.3 3.4 9.3-.3 1.1-.5 2.3-.6 3.6-.4 3 0 6.1-.4 9.2-.3 2.5-1 4.9-1 7.4 0 .4 0 .9.4 1 .2.2.4.2.6.2l6.1.2a49.8 49.8 0 0 0 12-.9c1.2-.6 1.6-2.1 1.8-3.5.2-1.7.3-3.5.3-5.2.7 2.4 1.6 4.8 3.9 5.8 1.2.5 2.5.5 3.8.5a72.3 72.3 0 0 0 9.3-1.2 1.1 1.1 0 0 0 .3-1v-2.7c.1-5.5-1.3-10.8-1.8-16.4-.2-1.7-.2-3.5-.6-5.2l-.6-2.1-.2-2.1-.4-5.5c-.2-2.6-.5-5-.6-7.6-.2-2.4-.5-4.9-1.1-7.3-.4-1.5-1.4-3.2-3-3.4-.7 0-1.6.3-2.4.6-1.9.6-4 .6-6 0-.5-.3-1.2-.5-1.8-.6a1.8 1.8 0 0 0-1.7.7c-.2.4-.3.9-.3 1.3-.2 5-.7 10.1-2 15Z"/>
    <path fill="#3F3D56" d="M210.4 211.6a30.3 30.3 0 0 0-7.6-6.4 6 6 0 0 0-3.8-.9c-1.3.3-2.5 1.4-2.4 2.7 0 .8.5 1.6.7 2.3.2 1-.1 2 .2 2.8.2.6.5 1 1 1.5l3.5 4.2c1.5 1.8 3 3.5 5 4.7 1.9 1.2 4.4 1.8 6.5 1a8 8 0 0 0 3.6-3.3l2.3-4.4c1.3-2.3 3-4.4 5-6-1-.3-2.4-.7-3-1.6a5 5 0 0 1-.5-.8l-.8-1.8a2 2 0 0 0-1.5.6l-1.1 1.1c-.7.5-1.7.7-2.3 1.3a6 6 0 0 0-.7.8 5.6 5.6 0 0 1-4 2.2Z"/>
    <path fill="#BE6F72" d="M224.6 201.2c1.7-3.2 1.6-7 2.1-10.5 0-1 .4-1.9 1-2.7 1-1 2.7-1.1 4.2-1 .5 0 1 .3 1 .7l-.2.5a11.9 11.9 0 0 0-2.5 6.5c.8.6 2-.5 2.8 0 .5.4.2 1.3 0 1.9a153 153 0 0 1-2.2 4.1c-.6 1.2-1.4 2.3-2.3 3.3l-2 1.7c-1.5 1.4-2.4 3.4-4 4.8l-.5.2a.8.8 0 0 1-.5-.2 7.6 7.6 0 0 1-1.9-2.3c-.6-1.1-.5-1.4.4-2.2 1.8-1.4 3.5-2.8 4.6-4.8Z"/>
    <path fill="#7427C4" d="M207.5 209.5c.3.2.7.4 1 .2.2 0 .3-.2.4-.3a11.8 11.8 0 0 0 1.5-2.9c0-.3-.3-.5-.5-.7a20.4 20.4 0 0 0-8.7-3 4 4 0 0 0-2.7 1.4c-1 1.3.7 1.7 1.7 2.2 2.4 1 5 1.7 7.3 3Z"/>
    <path fill="#3F3D56" d="M206 218a.7.7 0 0 0 .2.6v-2.2c.3-1 1.4-1.8 1.4-3-1.9-.3-1.6 3.4-1.6 4.6Z" opacity=".1"/>
    <path fill="#3F3D56" d="M294 178.9v5l-20.3 1.2-.6-5L294 179Z" opacity=".2"/>
    <path fill="#3F3D56" d="M204 186.9c1.3-1 .6-3.2 1.5-4.6.5-.8 1.3-1.2 2.1-1.5 1-.5 2.1-.8 3.2-1a3.7 3.7 0 0 1 3 1.2l.8 1.2a3.2 3.2 0 0 0 3.2 1c.7 0 1.3-.6 1.3-1.2 0-.5-.3-.8-.6-1.1l-1.4-1.6c-1.6-1.8-3.5-3.7-5.8-4.2a10 10 0 0 0-5 .7c-.6.2-1.4.5-1.5 1.2-.2.4 0 1 0 1.4-.3.9-1.4 1.2-2 2-.5.7-.4 1.6-.5 2.5-.2.8-.6 1.6-.7 2.5 0 .5.3 1.5.9 1.7.5.2 1.2-.9 1.6-.2Z"/>
    <path fill="#FED253" d="M218.6 181.2a15 15 0 0 0-2.6-6c-1.2-1.7-2.9-3-4.8-3.8a6.7 6.7 0 0 0-5.9.5 8.5 8.5 0 0 0-2.9 3.7c-1.3 2.8-1.8 6.2-.3 8.9.6-.8 1.7-.4 2.6-.7 1.1-.3 2-1 3.2-1.6 3.2-1.4 7.2-.2 10.7-1Z"/>
    <path fill="#3F3D56" d="M202.9 181c-.1-.8-.2-1.9.4-2.5h.2l.1-.1a.4.4 0 0 1 .2.2c.4.5.7 1.2 1 1.8a1.9 1.9 0 0 0-2 .8M214.6 178.5l-.2-1.7v-.5a.6.6 0 0 1 .8-.2l.5.6c.5.6.8 1.3 1 2a6 6 0 0 0-2.4 0M219 251v4l-3.4.2h-18.1V251H219Z" opacity=".1"/>
    <path fill="#F1C0C0" d="M219 251v4.2h-21.5l-57.2-71.7v-3.4h12L219 251Z"/>
    <path fill="#3F3D56" d="M219 251v4.2h-21.5l-57.2-71.7v-3.4h12L219 251Z" opacity=".1"/>
    <path fill="#3F3D56" d="M219 251v4.2h-21.5l-57.2-71.7v-3.4l57.5 70.8H219Z" opacity=".1"/>
    <path fill="#7427C4" d="M147.8 322.8a1.5 1.5 0 0 1-1.3 1.8c-1.4.5-2.9 1-3.9 2s-1.1 3 0 3.9c.7.4 1.3.5 2 .5 2.3.2 4.7.2 6.7-.8 1.5-.7 2.9-1.8 4.5-1.7.8 0 1.7.4 2.4 0 .8-.4 1-1.4 1-2.3 0-1.8-.3-3.7-.8-5.4 0-.3-3.3-.5-3.6-.5l-3.9-.5c-.7-.1-2.3-.7-2.9 0-.5.5-.2 2.3-.2 3ZM170.8 310.4c.1.9.4 1.7.8 2.6.5 1.3 1.2 2.8 2.5 3.4 1.2.6 2.6.4 3.8-.1.5-.3 1-.6 1.3-1 .4-.7.6-1.5.5-2.3 0-1.9 0-3.9-1-5.6-.7-1.5-2-2.8-2-4.5l-4.6 1c-.3 0-.5 0-.7.2l-.3.5a15 15 0 0 0-.3 5.8ZM116.5 262.9c-.2 1.6-.2 3.3.7 4.7.8 1.4 2.6 2.3 4.1 1.8a.6.6 0 0 0 .4-.3v-.5c-.7-1.8-.7-3.8 0-5.6.2-.2.4-.5.6-.4l.3.2.3 1.4v1.3c0 .5.5.9 1 .7a1 1 0 0 0 .4-.7 21.3 21.3 0 0 0 0-10.5.5.5 0 0 0-.5-.1c-2.4-.3-3.7-.8-5 1.4a13.7 13.7 0 0 0-2.3 6.6Z"/>
    <path fill="#3F3D56" d="M144 254.7c-.7 2.9-1.4 5.8-1.4 8.8 0 1.9.1 3.7.4 5.6l.5 4.3.6 4.4c.2.7.3 1.5.3 2.2 0 .8-.2 1.5-.4 2.3a26 26 0 0 0-.5 4.6c0 2.5.3 5 .4 7.5.4 5 .4 10-.1 15-.2 1.3 0 2.7.8 3.8l.7 1.2c.4 1.1-.5 2.3-.7 3.5a3.5 3.5 0 0 0 2.9 4c4 .4 8 .2 11.7 2 .4-1-.5-2.3 0-3.5.2-.7.8-1.1 1.3-1.7.6-.9.9-2 .8-3 0-1.5-.2-2.9-.7-4.2-.4-1-1-2.2-1-3.3 0-.6.2-1.2 0-1.8l-.7-.8a10.2 10.2 0 0 1-2.6-5.9c-.2-2.2-.1-4.4.2-6.6.3-2 .6-4.2 2-5.8-.7-5-.3-9.9 1-14.6 0-.5.3-1 .7-1.1a1.1 1.1 0 0 1 1 .4c.8.7 1.2 1.8 1.5 2.8.4 1.1.8 2.3.5 3.4l-.5 1.4c-.3 1-.3 2 .1 3l.4 1c0 .4-.2.7-.3 1a4.4 4.4 0 0 0 .4 3.6c.6 1 1.4 2 2.3 2.9a10.5 10.5 0 0 0 .4 6v.3c0 .2-.3.3-.5.4-.5.4-.2 1.2.2 1.7.9 1.5 1.9 2.9 3 4.2 1 1.2.9 3.5 2.4 4h1.9c1.4-.3 3-.7 3.8-2 .3-.5.4-1.2.9-1.6.4-.4 1-.5 1.3-1 .2-.4 0-1 0-1.6.1-.6.6-1 .8-1.6.3-1.3-1.2-2.4-1.5-3.8-.3-2 2.3-3.5 2.2-5.5l-.6-13c-.3-4-.4-7.9-.2-11.8.2-2.4.5-5-.3-7.2-1.3-3.1-4.8-5-8.3-5.3-3.4-.3-6.8.5-10.1 1-5.7.9-11.4 1-17 .4Z"/>
    <path fill="#FBBEBE" d="M154.1 207a8 8 0 1 0 0-16 8 8 0 0 0 0 16Z"/>
    <path fill="#FBBEBE" d="M150.9 208.4a3.4 3.4 0 0 1-3.3 2c-.3 1.3.4 2.5 1.2 3.4a14.2 14.2 0 0 0 13.6 4.7c1-.2 2-.5 2.7-1.1a6 6 0 0 0 2-3.6c.3-1.3.4-2.7.3-4.1 0-.3 0-.6-.3-.8a1 1 0 0 0-.7-.2c-1.7-.2-3.4-.2-4.9-1-1.5-.9-2.5-2.8-1.8-4.3-.1.2-3 .3-3.4.4a88.6 88.6 0 0 0-5.3.9c-.8.4-.5.2-.3.9.2 1 .6 1.7.2 2.8Z"/>
    <path fill="#3F3D56" d="M157 213.3c-1.1 0-2.2-.1-3.2-.4-1-.2-2-.8-2.7-1.7-.3-.6-.6-1.3-1.2-1.6-1-.5-2 .3-2.8 1.1-.7.8-1.5 1.4-2.4 2-1 .5-2.3.7-3.3 1.4-.8.6-1.5 1.3-2 2.1l-7 9.7c-3 3.9-5.4 8-8 12.1-2.1 3.6-3.3 7.6-5 11.5v.7c0 .3.3.5.5.4-.7.7 0 2-.2 3-.2.7-.7 1.4-1.2 1.9 1-.2 2.2-.1 3.3.1 1 .3 2.1.8 3 1.5.7 0 .6-1.2 1-1.6.3-.2.7-.2 1.1-.2 1.3-.3 1.9-1.9 2.9-2.8.8-.8 2-1 3-1.7 1.4-1.2 1.7-3.2 2.5-5 .7-1.4 1.7-2.6 2.3-4.1.3-1 .5-2 1-2.9.9-1.4 2.5-2.2 4-2.9 1-.4 2-.8 3-.8 0 2.3-.3 4.6.2 6.9l.7 2.4c1 3.6 1.1 7.3 1.2 11 2.3-.6 4.6-.8 7-.9l5.5.2c2.2 0 4.4-.5 6.6-.6 2.2-.2 4.5 0 6.4 1-.1-3.2 0-6.4.3-9.5l.5-5c.1-1.4.4-2.9.7-4.3l1-3.4c1.1-4 1-8.2.7-12.4 0-2.1-1-4.2-1.9-6.1a11.8 11.8 0 0 0-11.5-6.9 2 2 0 0 0-.7.1c-.5.3-.8.7-1 1.2-1 1.8-2.5 3.4-4.3 4.5ZM147.1 201.6c.2-.5.8-.7 1.2-1.1.7-.8.4-2 .5-3 .2-1.5 1.4-2.8 2.8-3.3 1.5-.5 3-.6 4.5-.3.8 0 1.5.3 2 .7l.8.6a2 2 0 0 0 2.7-.6c-1.7-2.2-3.7-4.4-6.4-5-.9-.3-1.8-.3-2.8-.3a9 9 0 0 0-3.7.4 6.1 6.1 0 0 0-3.2 3.7c-.5 1.7-.7 3.3-.8 5v3.4c.2 1.6.8 3 1.7 4.3l.5.5c2.3 1 0-4.6.2-5Z"/>
    <path fill="#FED253" d="M161.4 193.3c-.3-2.3-2-4.3-3.8-5.8a13.8 13.8 0 0 0-5-3c-1.9-.6-4-.5-5.6.6a8.7 8.7 0 0 0-2.8 3.8 12 12 0 0 0-1.2 5.5 6 6 0 0 0 2.7 4.8c.6-.9 1.6-1.3 2.6-1.7 4.3-1.6 8.6-3 13-4.2Z"/>
    <path fill="#3F3D56" d="M146.2 192.4c.2 0 .3.1.4.3l1 2c-.6 0-1.6.2-1.9-.3-.1-.3 0-2 .5-2ZM157.6 191.2c-.1.1-.3 0-.3-.3v-2.1h.2c.5 0 .8.3 1 .6.4.5.8 1.1 1 1.7h-2" opacity=".1"/>
    <path fill="#3F3D56" d="m184 223.3 1.4-1.2c1.4-.9 3-1.3 4.6-1.9 1.6-.5 3.2-1.5 3.8-3 .3-1 .4-2 .3-3a2.5 2.5 0 0 0-1-2c-2.2-1.7-5-1.8-7.6-1.7a47.3 47.3 0 0 0-17.4 4.7l-.1.7c-.1 1.5 0 3 .6 4.4.6 1.7 2 3.2 2.7 5l.5 2.5c.2.8.7 1.6 1.5 2 2 1.2 3.8-.3 5.2-1.6l5.5-4.9Z"/>
    <path fill="#7427C4" d="m158.1 230.3-2.5-5.6-1-2.3-.7-3c-.8-3.2-3-5.9-4.2-9 0-.3-.2-.6-.4-.8a1.3 1.3 0 0 0-1.1-.2c-1.5.2-2.7 1.4-4.1 2l-2 1a2.5 2.5 0 0 0-1.4 1.5c-.1.8.3 1.5.6 2.3 1.3 3 1.7 6.5 1.7 9.8 0 2.3 0 4.7-1.4 6.5-2.5 3.5-1 8.6 0 12.9l.4 1.5v2c0 2.3 0 4.6-1 6.6 1 .5 2 .8 3 .9a116.3 116.3 0 0 0 11.5.6 5 5 0 0 0 3.7-4.9c.1 1.4.4 3 1.4 3.9 1 1 2.5 1 3.9 1.1a71 71 0 0 0 12.2-.4c.8-.4.8-1.4.7-2.3a92.5 92.5 0 0 0-.6-7.5c0-1 .2-2 .5-3a34 34 0 0 0 .9-11.8c0-1.8 1-3.5.8-5.2-.5-5.2-.9-10.5-2.3-15.4-.3-1-.6-1.9-1.4-2.4-1-.7-2.4-.3-3.5-.7l-1.5-1a7 7 0 0 0-3.5-1c-.9 0-2 .2-2.5 1l-.5 1.3-2.4 9-.8 3-2.2 7.7c-.2.8 0 1-.3 1.9Z"/>
    <path fill="#F1C0C0" d="m170.9 200 48.3 50.8v4.3h-21.5l-36.3-47.4"/>
    <path fill="#3F3D56" d="m170.9 200 48.3 50.8v4.3h-21.5l-36.3-47.4" opacity=".1"/>
    <path fill="#3F3D56" d="M162.1 207h.2l35.7 43.8h21.2v4.3h-21.5l-36.3-47.4.7-.7Z" opacity=".1"/>
    <path fill="#7427C4" d="M167.7 208c-1.8.9-3.7 1.8-4.2 3.7a2 2 0 0 0 0 1 2 2 0 0 0 1.7 1.4 6 6 0 0 0 2.5-.5l10.3-3.4c.2 0 .6-.2.6-.5v-.5c-.4-.8-.7-2.3-1.4-2.9-.5-.4-1.6-.3-2.3-.3-2.5 0-5 1-7.2 2Z"/>
    <path fill="#3F3D56" d="M176.9 210.6c1.7 0 3.4.3 5.1.8 1.7.6 3.1 1.6 4.2 3 .4.3.6.8.7 1.2.1.5 1.7.8 1.4 1.2 1-.2.8.3 2 .3 1 0 2.2-.3 2.9-1.2.5-.7.7-1.6.6-2.4 0-.6-.1-1.2-.4-1.7-.5-1.1-1.6-1.7-2.7-2.1l-8.9-4.1c-.5-.3-1-.5-1.6-.6h-1.5l-4 .5a6 6 0 0 1 2.7 5.3"/>
</svg>